<svg width="184" height="18" viewBox="0 0 184 18" fill="none" xmlns="http://www.w3.org/2000/svg">
<path fill-rule="evenodd" clip-rule="evenodd" d="M155.86 12.3041C156.221 13.4719 157.223 14.0573 158.614 14.0573C160.006 14.0573 160.924 13.4719 160.924 12.4161C160.924 11.6099 160.396 11.2484 159.309 10.9957L156.023 10.2982C153.518 9.74158 151.624 8.43311 151.624 5.53783C151.624 2.19785 154.407 0 158.192 0C162.367 0 164.735 2.28103 165.205 5.2339H160.835C160.473 4.28694 159.693 3.56392 158.218 3.56392C156.938 3.56392 156.074 4.12058 156.074 5.06754C156.074 5.81936 156.602 6.23525 157.495 6.4304L160.835 7.21101C163.756 7.90524 165.371 9.49204 165.371 12.1378C165.371 15.6441 162.421 17.65 158.691 17.65C154.599 17.65 151.816 15.6729 151.205 12.3041H155.854H155.86ZM122.548 11.7185V17.3683H118.123V0.278126H125.804C129.48 0.278126 132.011 2.36721 132.011 6.09428C132.011 8.68244 130.702 10.4644 128.617 11.245L132.625 17.3683H127.67L124.106 11.7185H122.548ZM122.548 8.15457H125.331C126.918 8.15457 127.641 7.34837 127.641 6.09428C127.641 4.84019 126.918 4.03399 125.331 4.03399H122.548V8.15457ZM15.0875 17.3683H11.4692L4.31573 7.37718V17.3683H0V0.278148H4.17496L10.7717 9.68701V0.278148H15.0875V17.3683ZM27.7436 0.278148L34.2572 17.3683H29.7207L28.4954 14.0571H22.289L21.0925 17.3683H16.668L23.1784 0.278148H27.7436ZM23.6518 10.3812H27.1582L25.405 5.56643L23.6518 10.3812ZM31.5605 0.278148L37.9366 17.3683H37.9398H42.3099L48.6827 0.278148H44.0886L40.2144 11.3282L36.3466 0.278148H31.5605ZM62.7367 0.278171V4.12042H54.9146V6.79175H62.068V10.5508H54.9146V13.5005H62.7367V17.3683H50.5157V0.278171H62.7367ZM69.9714 17.3683V11.7185H71.5294L75.0933 17.3683H80.0489L76.0403 11.245C78.1262 10.4644 79.4346 8.68246 79.4346 6.0943C79.4346 2.36723 76.9041 0.278148 73.2282 0.278148H65.5469V17.3683H69.9714ZM72.7547 8.15459H69.9714V4.03402H72.7547C74.3415 4.03402 75.0645 4.84021 75.0645 6.0943C75.0645 7.34839 74.3415 8.15459 72.7547 8.15459ZM97.0288 0.278148L103.542 17.3683H99.0059L97.7806 14.0571H91.5742L90.3777 17.3683H85.9532L92.4635 0.278148H97.0288ZM96.4434 10.3812L94.6902 5.56643L92.937 10.3812H96.4434ZM105.119 17.3685H109.601V0.27832H105.119V17.3685ZM134.469 0.27832V10.3814C134.469 15.0874 137.422 17.6468 141.929 17.6468C146.437 17.6468 149.361 15.0874 149.361 10.4102V0.27832H144.908V9.99111C144.908 12.4097 143.794 13.6638 141.929 13.6638C140.064 13.6638 138.922 12.4129 138.922 9.99111V0.27832H134.469ZM183.35 17.3685V0.27832H178.868V6.76311H172.271V0.27832H167.789V17.3685H172.271V10.6054H178.868V17.3685H183.35Z" fill="white"/>
</svg>
