<?xml version="1.0" encoding="utf-8"?><svg width="243" height="227" viewBox="0 0 243 227" xmlns="http://www.w3.org/2000/svg" xmlns:xlink="http://www.w3.org/1999/xlink"><view id="ico_arrow_diagonally_above" viewBox="0 201 25 26"/><svg width="25" height="26" fill="none" viewBox="0 0 25 26" y="201" xmlns="http://www.w3.org/2000/svg"><path fill-rule="evenodd" clip-rule="evenodd" d="M18.888 3.944H2.568v-3h21.697V22.64h-3V5.808L2.127 25.056 0 22.941 18.888 3.944z" fill="#2B65FE"/></svg><view id="ico_arrow_diagonally_above_white" viewBox="77 201 25 25"/><svg width="25" height="25" fill="none" viewBox="0 0 25 25" x="77" y="201" xmlns="http://www.w3.org/2000/svg"><path fill-rule="evenodd" clip-rule="evenodd" d="M18.888 3.03H2.568v-3h21.697v21.696h-3V4.894L2.127 24.142 0 22.027 18.888 3.03z" fill="#fff"/></svg><view id="ico_arrow_down" viewBox="202 82 41 22"/><svg width="41" height="22" fill="none" viewBox="0 0 41 22" x="202" y="82" xmlns="http://www.w3.org/2000/svg"><path d="M20.314 20.197l-1.044 1.076a1.5 1.5 0 002.089 0l-1.045-1.076zm1.045-1.077L2.6.923.512 3.077 19.27 21.273l2.089-2.153zM38.028.923L19.27 19.12l2.089 2.153L40.117 3.077 38.027.923z" fill="#1A1A1A"/></svg><view id="ico_arrow_down_round" viewBox="25 201 26 26"/><svg width="26" height="26" fill="none" viewBox="0 0 26 26" x="25" y="201" xmlns="http://www.w3.org/2000/svg"><path opacity=".6" d="M22.346 9.34l-8.849 8.849-8.849-8.85" stroke="#1A1A1A" stroke-width="2" stroke-linecap="round" stroke-linejoin="round"/></svg><view id="ico_arrow_next" viewBox="202 104 13 20"/><svg width="13" height="20" fill="none" viewBox="0 0 13 20" x="202" y="104" xmlns="http://www.w3.org/2000/svg"><path d="M11 10l.669-.743.826.743-.826.743L11 10zm.669.743l-10 9-1.338-1.486 10-9 1.338 1.486zM1.669.257l10 9-1.338 1.486-10-9L1.669.257z" fill="#1A1A1A"/></svg><view id="ico_arrow_prev" viewBox="215 104 13 20"/><svg width="13" height="20" fill="none" viewBox="0 0 13 20" x="215" y="104" xmlns="http://www.w3.org/2000/svg"><path d="M2 9.809l-.676-.738-.804.738.804.737L2 9.809zm-.676.737l9.824 9 1.35-1.475-9.822-9-1.352 1.475zM11.148.07l-9.824 9 1.352 1.475 9.823-9L11.148.07z" fill="#1A1A1A"/></svg><view id="ico_arrow_up_round" viewBox="51 201 26 26"/><svg width="26" height="26" fill="none" viewBox="0 0 26 26" x="51" y="201" xmlns="http://www.w3.org/2000/svg"><path d="M22.346 16.66l-8.849-8.849-8.849 8.85" stroke="#1A1A1A" stroke-opacity=".6" stroke-width="2" stroke-linecap="round" stroke-linejoin="round"/></svg><view id="ico_circle_arrow_down" viewBox="0 82 82 82"/><svg width="82" height="82" fill="none" viewBox="0 0 82 82" y="82" xmlns="http://www.w3.org/2000/svg"><path fill-rule="evenodd" clip-rule="evenodd" d="M79.3 41c0 21.153-17.147 38.3-38.3 38.3C19.848 79.3 2.7 62.153 2.7 41 2.7 19.848 19.848 2.7 41 2.7c21.153 0 38.3 17.148 38.3 38.3zm2.7 0c0 22.644-18.356 41-41 41S0 63.644 0 41 18.356 0 41 0s41 18.356 41 41zM41.21 60.08l-.911-.995-16.878-18.42 1.824-1.992 14.617 15.954v-33.13h2.7v33.127l14.614-15.95L59 40.663 42.123 59.085l-.912.996z" fill="#1A1A1A"/></svg><view id="ico_circle_arrow_down_white" viewBox="82 82 82 82"/><svg width="82" height="82" fill="none" viewBox="0 0 82 82" x="82" y="82" xmlns="http://www.w3.org/2000/svg"><path fill-rule="evenodd" clip-rule="evenodd" d="M79.3 41c0 21.153-17.147 38.3-38.3 38.3C19.848 79.3 2.7 62.153 2.7 41 2.7 19.848 19.848 2.7 41 2.7c21.153 0 38.3 17.148 38.3 38.3zm2.7 0c0 22.644-18.356 41-41 41S0 63.644 0 41 18.356 0 41 0s41 18.356 41 41zM41.21 60.08l-.911-.995-16.878-18.42 1.824-1.992 14.617 15.954v-33.13h2.7v33.127l14.614-15.95L59 40.663 42.123 59.085l-.912.996z" fill="#fff"/></svg><view id="ico_close" viewBox="222 126 18 18"/><svg width="18" height="18" fill="none" viewBox="0 0 18 18" x="222" y="126" xmlns="http://www.w3.org/2000/svg"><path fill-rule="evenodd" clip-rule="evenodd" d="M10.275 9.21l7.084 7.338-1.39 1.439-7.083-7.338-7.084 7.338-1.389-1.439L7.497 9.21l-7.5-7.771L1.384 0l7.501 7.77L16.387 0l1.39 1.439-7.502 7.77z" fill="#1A1A1A"/></svg><view id="ico_menu" viewBox="161 164 18 18"/><svg width="18" height="18" fill="none" viewBox="0 0 18 18" x="161" y="164" xmlns="http://www.w3.org/2000/svg"><path stroke="#1A1A1A" stroke-width="1.9" stroke-linecap="square" d="M.95 1.86h16.1M.95 8.26h16.1M.95 14.66h16.1"/></svg><view id="ico_menu_white" viewBox="179 164 18 18"/><svg width="18" height="18" fill="none" viewBox="0 0 18 18" x="179" y="164" xmlns="http://www.w3.org/2000/svg"><path stroke="#fff" stroke-width="1.9" stroke-linecap="square" d="M.95 1.86h16.1M.95 8.26h16.1M.95 14.66h16.1"/></svg><view id="ico_search" viewBox="197 164 18 18"/><svg width="18" height="18" fill="none" viewBox="0 0 18 18" x="197" y="164" xmlns="http://www.w3.org/2000/svg"><path d="M7.503 13.88c3.591 0 6.503-2.883 6.503-6.44 0-3.557-2.912-6.44-6.503-6.44C3.911 1 1 3.883 1 7.44c0 3.557 2.911 6.44 6.503 6.44zM12.094 11.994L17.149 17" stroke="#1A1A1A" stroke-width="2" stroke-miterlimit="10"/></svg><view id="ico_search_white" viewBox="215 164 18 18"/><svg width="18" height="18" fill="none" viewBox="0 0 18 18" x="215" y="164" xmlns="http://www.w3.org/2000/svg"><path fill-rule="evenodd" clip-rule="evenodd" d="M2 7.44C2 4.445 4.455 2 7.503 2s5.503 2.445 5.503 5.44c0 2.995-2.455 5.44-5.503 5.44S2 10.435 2 7.44zM7.503 0C3.368 0 0 3.322 0 7.44s3.368 7.44 7.503 7.44a7.515 7.515 0 004.547-1.522l4.395 4.353 1.407-1.421-4.381-4.34a7.364 7.364 0 001.535-4.51c0-4.118-3.368-7.44-7.503-7.44z" fill="#fff"/></svg><view id="ico_share" viewBox="164 82 38 44"/><svg width="38" height="44" fill="none" viewBox="0 0 38 44" x="164" y="82" xmlns="http://www.w3.org/2000/svg"><path d="M25.114 19.376h7.372v19.533H6.152V19.376h7.372" stroke="#000" stroke-width="2.7"/><path fill-rule="evenodd" clip-rule="evenodd" d="M17.964 7.37v21.122h2.7V7.37l7.584 6.69 1.611-2.2-9.74-8.591-.805-.71-.805.71-9.74 8.591 1.612 2.2 7.583-6.69z" fill="#1A1A1A"/></svg><view id="ico_slash" viewBox="204 126 18 32"/><svg width="18" height="32" fill="none" viewBox="0 0 18 32" x="204" y="126" xmlns="http://www.w3.org/2000/svg"><path opacity=".3" d="M12.256.298h4.788L5.326 31.672H.58L12.256.298z" fill="#fff"/></svg><view id="ico_slide_circle_arrow_next" viewBox="40 164 32 30"/><svg width="32" height="30" fill="none" viewBox="0 0 32 30" x="40" y="164" xmlns="http://www.w3.org/2000/svg"><path stroke="#000" stroke-width="2.4" d="M.203 14.612h29.038M14.944 28.388l14.947-13.693L14.944 1"/></svg><view id="ico_slide_circle_arrow_prev" viewBox="72 164 32 30"/><svg width="32" height="30" fill="none" viewBox="0 0 32 30" x="72" y="164" xmlns="http://www.w3.org/2000/svg"><path transform="matrix(-1 0 0 1 31.594 15.813)" stroke="#000" stroke-width="2.4" d="M0-1.2h29.038"/><path d="M16.852 28.389L1.906 14.695 16.852 1.002" stroke="#000" stroke-width="2.4"/></svg><view id="ico_stick_arrow_next" viewBox="164 126 40 37"/><svg width="40" height="37" fill="none" viewBox="0 0 40 37" x="164" y="126" xmlns="http://www.w3.org/2000/svg"><path fill-rule="evenodd" clip-rule="evenodd" d="M38.894 19.883L40 18.87l-1.106-1.014L20.211.74 18 2.766l15.827 14.5H.678v3h33.374L17.999 34.973 20.211 37l18.683-17.117z" fill="#1A1A1A"/></svg><view id="ico_stick_arrow_next_thick" viewBox="134 164 27 23"/><svg width="27" height="23" fill="none" viewBox="0 0 27 23" x="134" y="164" xmlns="http://www.w3.org/2000/svg"><path fill-rule="evenodd" clip-rule="evenodd" d="M25.213 12.584l.959-.879-.959-.878L13.835.402l-1.917 1.756 9.068 8.308H.75v2.6h20.102l-8.935 8.187 1.918 1.756 11.378-10.425z" fill="#1A1A1A"/></svg><view id="ico_stick_arrow_prev" viewBox="0 164 40 37"/><svg width="40" height="37" fill="none" viewBox="0 0 40 37" y="164" xmlns="http://www.w3.org/2000/svg"><path fill-rule="evenodd" clip-rule="evenodd" d="M1.524 19.883L.418 18.87l1.106-1.014L20.207.74l2.212 2.027-15.827 14.5H39.74v3H6.366L22.42 34.973 20.207 37 1.524 19.883z" fill="#1A1A1A"/></svg><view id="ico_stick_arrow_prev_thick" viewBox="104 164 30 29"/><svg width="30" height="29" fill="none" viewBox="0 0 30 29" x="104" y="164" xmlns="http://www.w3.org/2000/svg"><path fill-rule="evenodd" clip-rule="evenodd" d="M1.106 15.513L0 14.5l1.106-1.013L15.006.752l2.212 2.027-10.653 9.76h23.256v3H5.557l11.66 10.682-2.211 2.027-13.9-12.735z" fill="#1A1A1A"/></svg><view id="img_banner_title" viewBox="0 0 243 82"/><svg width="243" height="82" fill="none" viewBox="0 0 243 82" xmlns="http://www.w3.org/2000/svg"><path fill-rule="evenodd" clip-rule="evenodd" d="M21.312 31.756h6.723V0h-8.02v17.483L7.759 0H0v31.756h8.02V13.191l13.292 18.565zm179.065-21.15c.101-1.707 1.135-3.157 3.103-3.157l-.006.006c1.866 0 3.002 1.242 3.002 2.948 0 1.86-1.451 3.466-3.62 5.69l-10.915 10.86v5.326h23.018V25.14h-11.432l5.226-5.172c3.21-3.103 6.105-6.004 6.105-10.088 0-5.897-4.607-9.88-11.378-9.88s-11.069 4.708-11.687 10.605h8.584zM180.129.44l-4.238 7.757h7.442l4.5-7.757h-7.704zm46.374 19.213h5.012v-5.38h7.139v5.38H243v6.724h-4.346v5.897h-7.139v-5.898h-13.81v-6.105L227.33.517h7.912l-8.739 19.136zM51.552 0l12.103 31.756h-8.43l-2.276-6.152H41.416l-2.223 6.152H30.97L43.07 0h8.483zm-1.088 18.773l-3.258-8.946-3.257 8.946h6.515zM58.644 0l11.848 31.756h8.126L90.46 0h-8.537l-7.199 20.533L67.537 0h-8.893zm57.931 0v7.14H102.04v4.963h13.292v6.985H102.04v5.481h14.535v7.187H93.866V0h22.709zm13.447 31.756V21.258h2.895l6.622 10.498h9.208l-7.448-11.378c3.876-1.45 6.307-4.761 6.307-9.57C147.606 3.881 142.904 0 136.073 0H121.8v31.756h8.222zm5.171-17.12h-5.171V6.979h5.171c2.949 0 4.293 1.498 4.293 3.828s-1.344 3.829-4.293 3.829zM51.552 49.085L63.655 80.84h-8.43l-2.276-6.153H41.416l-2.223 6.153H30.97l12.104-31.756h8.477zm-7.603 18.773h6.515l-3.258-8.947-3.257 8.947zm22.643 12.989h8.329V49.09h-8.329v31.757zm63.43-10.504V80.84H121.8V49.085h14.273c6.831 0 11.533 3.882 11.533 10.807 0 4.81-2.431 8.12-6.307 9.571l7.448 11.378h-9.208l-6.622-10.498h-2.895zm0-6.623h5.171c2.949 0 4.293-1.498 4.293-3.828s-1.344-3.828-4.293-3.828h-5.171v7.657zm22.155-14.63v18.774c0 8.744 5.487 13.5 13.863 13.5s13.81-4.756 13.81-13.447V49.09h-8.275v18.048c0 4.495-2.069 6.825-5.535 6.825-3.465 0-5.588-2.325-5.588-6.825V49.09h-8.275zm39.746 22.34c.672 2.17 2.533 3.258 5.118 3.258 2.586 0 4.292-1.088 4.292-3.05 0-1.497-.98-2.169-3.002-2.639l-6.105-1.296c-4.654-1.034-8.174-3.465-8.174-8.845 0-6.206 5.172-10.29 12.205-10.29 7.758 0 12.157 4.238 13.03 9.725h-8.12c-.672-1.76-2.122-3.103-4.863-3.103-2.378 0-3.983 1.034-3.983 2.794 0 1.397.981 2.17 2.64 2.532l6.206 1.45c5.428 1.29 8.43 4.24 8.43 9.156 0 6.515-5.481 10.242-12.413 10.242-7.603 0-12.775-3.674-13.91-9.933H191.923zM243 80.842V49.085h-8.328v12.05h-12.258v-12.05h-8.329V80.84h8.329V68.274h12.258v12.567H243z" fill="#fff"/></svg></svg>